<svg xmlns="http://www.w3.org/2000/svg" xmlns:xlink="http://www.w3.org/1999/xlink" version="1.1" width="1000" height="1000" viewBox="0 0 1000 1000" xml:space="preserve">
<desc>Created with Fabric.js 3.5.0</desc>
<defs>
</defs>
<rect x="0" y="0" width="100%" height="100%" fill="#121212"/>
<g transform="matrix(3.2381 0 0 2.868 500.0008 490.2278)" id="764319">
<rect style="stroke: none; stroke-width: 1; stroke-dasharray: none; stroke-linecap: butt; stroke-dashoffset: 0; stroke-linejoin: miter; stroke-miterlimit: 4; is-custom-font: none; font-file-url: none; fill: rgb(87,40,90); fill-rule: nonzero; opacity: 0.01;" x="-150" y="-150" rx="0" ry="0" width="300" height="300"/>
</g>
<g transform="matrix(3.2381 0 0 3.2381 505.8308 496.0652)" id="85941">
<path style="stroke: none; stroke-width: 1; stroke-dasharray: none; stroke-linecap: butt; stroke-dashoffset: 0; stroke-linejoin: miter; stroke-miterlimit: 4; is-custom-font: none; font-file-url: none; fill: rgb(255,255,255); fill-rule: nonzero; opacity: 1;" transform=" translate(0, 0)" d="" stroke-linecap="round"/>
</g>
<g transform="matrix(3.2381 0 0 3.2381 525.83 516.0643)" id="961289">
<path style="stroke: none; stroke-width: 1; stroke-dasharray: none; stroke-linecap: butt; stroke-dashoffset: 0; stroke-linejoin: miter; stroke-miterlimit: 4; is-custom-font: none; font-file-url: none; fill: rgb(255,255,255); fill-rule: nonzero; opacity: 1;" transform=" translate(0, 0)" d="" stroke-linecap="round"/>
</g>
<g transform="matrix(16.564 0 0 16.564 498.967 500.9202)" id="849469">
<path style="stroke: none; stroke-width: 1; stroke-dasharray: none; stroke-linecap: butt; stroke-dashoffset: 0; stroke-linejoin: miter; stroke-miterlimit: 4; is-custom-font: none; font-file-url: none; fill: rgb(207,79,114); fill-rule: nonzero; opacity: 1;" transform=" translate(-32, -32)" d="M 33.5 41.5 A 1.5 1.5 0 1 1 32 40 a 1.5 1.5 0 0 1 1.5 1.5 z M 5 38 v 4 a 3.003 3.003 0 0 0 3 3 h 48 a 3.003 3.003 0 0 0 3 -3 v -4 z m 24.133 -19.012 a 1 1 0 0 0 -1.414 0 l -2.426 2.426 a 1 1 0 0 0 0 1.414 l 2.426 2.426 a 1 1 0 0 0 1.414 -1.414 l -1.719 -1.719 l 1.719 -1.719 a 1 1 0 0 0 0 -1.414 z m 9.574 2.426 l -2.426 -2.426 a 1 1 0 1 0 -1.414 1.414 l 1.719 1.72 l -1.719 1.718 a 1 1 0 1 0 1.414 1.414 l 2.426 -2.426 a 1 1 0 0 0 0 -1.414 z m -5.116 -2.474 a 1 1 0 0 0 -1.342 0.447 l -2.287 4.574 a 1 1 0 0 0 1.789 0.895 l 2.287 -4.574 a 1 1 0 0 0 -0.447 -1.342 z M 59 11 v 25 H 5 V 11 a 3.003 3.003 0 0 1 3 -3 h 48 a 3.003 3.003 0 0 1 3 3 z M 43 22 a 11 11 0 1 0 -11 11 a 11.012 11.012 0 0 0 11 -11 z m -3 28 h -1.115 l -0.367 -3 H 25.482 l -0.367 3 H 24 a 3 3 0 0 0 0 6 h 16 a 3 3 0 0 0 0 -6 z" stroke-linecap="round"/>
</g>
</svg>